<svg width="110" height="45" viewBox="0 0 110 45" fill="none" xmlns="http://www.w3.org/2000/svg">
<rect x="1" width="109" height="45" rx="22.5" fill="white"/>
<path d="M0 22.5C0 10.0736 10.0736 0 22.5 0H37.5C49.9264 0 60 10.0736 60 22.5C60 34.9264 49.9264 45 37.5 45H22.5C10.0736 45 0 34.9264 0 22.5Z" fill="#C75E90"/>
<path d="M68 23H70.6667M70.6667 32.3333L73.3334 29.6667M80 32.3333V35M86.6667 29.6667L89.3333 32.3333M70.6667 13.6667L73.3333 16.3333M89.3333 23H92M86.6666 16.3333L89.3333 13.6667M80 11V13.6667M84 23C84 25.2091 82.2091 27 80 27C77.7909 27 76 25.2091 76 23C76 20.7909 77.7909 19 80 19C82.2091 19 84 20.7909 84 23Z" stroke="#161616" stroke-width="1.5" stroke-linecap="round" stroke-linejoin="round"/>
<path d="M16.875 28.9583C27.1464 31.0478 34.5487 18.3121 27.2083 10.875C33.6676 11.0448 38.8333 16.1857 38.8333 22.5C38.8333 28.9215 33.8202 34.125 27.2083 34.125C23.0377 34.125 19.0184 32.0995 16.875 28.9583Z" stroke="white" stroke-width="1.5" stroke-linejoin="round"/>
</svg>
