<svg width="88" height="88" viewBox="0 0 88 88" fill="none" xmlns="http://www.w3.org/2000/svg">
<path d="M11.0002 77C22.0002 77 36.6668 73.3334 36.6668 47.6667V18.3334C36.6668 13.75 33.8948 10.9377 29.3335 11H14.6668C10.0835 11 7.3335 13.75 7.3335 18.2307V40.3334C7.3335 44.9167 10.0835 47.6667 14.6668 47.6667C18.3335 47.6667 18.3335 47.6667 18.3335 51.3334V55C18.3335 58.6667 14.6668 62.3334 11.0002 62.3334C7.3335 62.3334 7.3335 62.3627 7.3335 66.1137V73.3334C7.3335 77 7.3335 77 11.0002 77Z" stroke="#C75E90" stroke-width="2" stroke-linecap="round" stroke-linejoin="round"/>
<path d="M55.0002 77C66.0002 77 80.6668 73.3334 80.6668 47.6667V18.3334C80.6668 13.75 77.8912 10.9377 73.3335 11H58.6668C54.0835 11 51.3335 13.75 51.3335 18.2307V40.3334C51.3335 44.9167 54.0835 47.6667 58.6668 47.6667H61.4168C61.4168 55.9167 62.3335 62.3334 51.3335 62.3334V73.3334C51.3335 77 51.3335 77 55.0002 77Z" stroke="#C75E90" stroke-width="2" stroke-linecap="round" stroke-linejoin="round"/>
</svg>
