<svg width="52" height="52" viewBox="0 0 52 52" fill="none" xmlns="http://www.w3.org/2000/svg">
<path d="M21.6667 26.0003L30.3333 32.5003L21.6667 37.9169L27.0833 45.5003M41.1667 21.1861V35.1003C41.1667 38.7405 41.1667 40.5607 40.4582 41.951C39.835 43.1741 38.8408 44.1686 37.6177 44.7918C36.2271 45.5003 34.4071 45.5003 30.7667 45.5003H21.2333C17.593 45.5003 15.7728 45.5003 14.3824 44.7918C13.1593 44.1686 12.165 43.1741 11.5418 41.951C10.8333 40.5607 10.8333 38.7405 10.8333 35.1003V21.1847M45.5 26.0003L33.7281 12.9221C31.0507 9.94784 29.7122 8.46066 28.1355 7.91165C26.751 7.42941 25.2438 7.42952 23.8591 7.91195C22.2827 8.46122 20.9443 9.94857 18.2675 12.9233L6.5 26.0003" stroke="white" stroke-width="4" stroke-linecap="round" stroke-linejoin="round"/>
</svg>
