<svg width="288" height="288" viewBox="0 0 288 288" fill="none" xmlns="http://www.w3.org/2000/svg">
<path fill-rule="evenodd" clip-rule="evenodd" d="M57.1909 28.2067C60.8515 25.462 64.6387 22.8931 68.5382 20.5084L20.5121 68.5382C22.8969 64.6386 25.4619 60.8506 28.2039 57.1948L57.1909 28.2067ZM120.746 1.15863C122.168 0.92543 123.596 0.716131 125.025 0.527933L0.532733 125.021C0.72 123.592 0.93023 122.167 1.1625 120.742L120.746 1.15863ZM158.411 0C159.506 0.108403 160.601 0.228403 161.696 0.362813L0.367738 161.692C0.232147 160.597 0.112272 159.502 0 158.407L158.411 0ZM188.591 6.31863C189.506 6.61429 190.417 6.92156 191.329 7.23738L7.23738 191.324C6.92637 190.417 6.61816 189.502 6.32262 188.587L188.591 6.31863ZM214.054 17.3616C214.837 17.7935 215.614 18.236 216.386 18.6816L18.6864 216.382C18.2399 215.609 17.7975 214.834 17.3664 214.049L214.054 17.3616ZM235.8 32.1186C236.467 32.6698 237.131 33.2208 237.787 33.7833L33.787 237.787C33.2245 237.127 32.6735 236.463 32.1225 235.796L235.8 32.1186ZM254.216 50.2079C254.775 50.8684 255.33 51.5318 255.877 52.2L52.2038 255.877C51.5329 255.325 50.8684 254.774 50.2127 254.212L254.216 50.2079ZM269.317 71.6131C269.764 72.3859 270.203 73.1653 270.634 73.9458L73.9497 270.634C73.1664 270.202 72.3897 269.763 71.6169 269.317L269.317 71.6131ZM280.763 96.671C281.077 97.5782 281.381 98.4892 281.677 99.4041L99.4089 281.677C98.4941 281.381 97.582 281.074 96.6748 280.759L280.763 96.671ZM287.636 126.303C287.771 127.399 287.891 128.493 288 129.588L129.592 288C128.497 287.887 127.403 287.767 126.307 287.632L287.636 126.303ZM287.471 162.971C287.284 164.403 287.07 165.832 286.841 167.253L167.257 286.837C165.836 287.07 164.408 287.28 162.975 287.467L287.471 162.971ZM267.488 219.461C265.106 223.357 262.545 227.141 259.804 230.794L230.801 259.796C227.145 262.537 223.361 265.102 219.461 267.487L267.488 219.461Z" fill="#C75E90" fill-opacity="0.23"/>
</svg>
